<svg xmlns="http://www.w3.org/2000/svg" width="1200" height="320" viewBox="0 0 1200 320" role="img" aria-labelledby="title description">
  <title id="title">max.</title>
  <desc id="description">The max. signature.</desc>

  <rect width="1200" height="320" fill="#0a0a0a"/>
  <rect x="376" y="85" width="448" height="150" fill="#ff5a1f"/>
  <path fill="#0a0a0a" transform="translate(412 202)" d="M21.59 0L4.25 0L4.25-84.32L19.21-84.32L20.74-74.46L21.59-74.46Q23.80-79.73 28.39-83.05Q32.98-86.36 39.27-86.36Q45.39-86.36 49.98-83.30Q54.57-80.24 56.78-74.46L57.46-74.46Q59.67-79.56 64.43-82.96Q69.19-86.36 76.16-86.36Q85.51-86.36 90.36-80.24Q95.20-74.12 95.20-63.07L95.20 0L77.86 0L77.86-59.50Q77.86-64.60 75.73-67.58Q73.61-70.55 69.02-70.55Q64.43-70.55 61.46-66.98Q58.48-63.41 58.48-56.95L58.48 0L40.97 0L40.97-59.50Q40.97-64.60 38.93-67.58Q36.89-70.55 32.30-70.55Q27.71-70.55 24.65-66.98Q21.59-63.41 21.59-56.95ZM145.35 2.04Q135.32 2.04 128.52-1.45Q121.72-4.93 118.32-10.79Q114.92-16.66 114.92-23.63Q114.92-36.04 124.02-43.01Q133.11-49.98 149.77-49.98L171.53-49.98L171.53-51.85Q171.53-70.89 153.85-70.89Q146.54-70.89 141.53-67.75Q136.51-64.60 134.81-57.63L116.79-57.63Q118.15-70.89 128.27-78.63Q138.38-86.36 153.85-86.36Q172.55-86.36 181.05-77.18Q189.55-68 189.55-51.85L189.55 0L174.25 0L172.72-12.41L171.53-12.41Q167.79-6.46 162.18-2.21Q156.57 2.04 145.35 2.04ZM148.75-13.09Q159.80-13.09 165.33-19.80Q170.85-26.52 171.36-36.89L151.64-36.89Q141.95-36.89 137.96-33.75Q133.96-30.60 133.96-24.99Q133.96-19.38 137.96-16.23Q141.95-13.09 148.75-13.09ZM234.09 0L214.20 0L243.10-42.16L213.18-84.32L233.24-84.32L255.00-52.87L276.76-84.32L296.82-84.32L266.90-42.16L295.80 0L275.74 0L255.00-31.45ZM357.00 1.02Q350.71 1.02 346.29-3.15Q341.87-7.31 341.87-13.26Q341.87-19.21 346.29-23.29Q350.71-27.37 357.00-27.37Q363.46-27.37 367.80-23.29Q372.13-19.21 372.13-13.26Q372.13-7.31 367.80-3.15Q363.46 1.02 357.00 1.02Z"/>
</svg>
